<svg xmlns="http://www.w3.org/2000/svg" viewBox="0 0 24 24" fill="none" aria-hidden="true">
  <path
    d="M4 7.5C4 6.11929 5.11929 5 6.5 5H17.5C18.8807 5 20 6.11929 20 7.5V16.5C20 17.8807 18.8807 19 17.5 19H6.5C5.11929 19 4 17.8807 4 16.5V7.5Z"
    stroke="currentColor"
    stroke-width="2"
    stroke-linecap="round"
    stroke-linejoin="round"
  />
  <path
    d="M8.5 10.5C9.32843 10.5 10 9.82843 10 9C10 8.17157 9.32843 7.5 8.5 7.5C7.67157 7.5 7 8.17157 7 9C7 9.82843 7.67157 10.5 8.5 10.5Z"
    stroke="currentColor"
    stroke-width="2"
    stroke-linecap="round"
    stroke-linejoin="round"
  />
  <path
    d="M20 15L16.5 11.5L11 17L8.5 14.5L4 19"
    stroke="currentColor"
    stroke-width="2"
    stroke-linecap="round"
    stroke-linejoin="round"
  />
</svg>
